<?xml version="1.0" encoding="utf-8"?>
<!-- Generator: Adobe Illustrator 28.2.0, SVG Export Plug-In . SVG Version: 6.00 Build 0)  -->
<svg version="1.1" id="Camada_1" xmlns="http://www.w3.org/2000/svg" xmlns:xlink="http://www.w3.org/1999/xlink" x="0px" y="0px"
	 viewBox="0 0 892.2 414.7" style="enable-background:new 0 0 892.2 414.7;" xml:space="preserve">
<style type="text/css">
	.st0{fill:#F06A8E;}
	.st1{fill:#575858;}
	.st2{fill-rule:evenodd;clip-rule:evenodd;fill:#575858;}
</style>
<g>
	<path class="st0" d="M619.4,0H268.2c-37.8,0-68.6,30.8-68.6,68.6s30.8,68.6,68.6,68.6h31.3c0.4-1.7,0.9-3.4,1.4-5h-32.7
		c-35,0-63.6-28.5-63.6-63.6S233.2,5,268.2,5h351.1c35.1,0,63.6,28.5,63.6,63.6s-28.5,63.6-63.6,63.6H415.1c0.5,1.7,1,3.3,1.4,5
		h202.9c37.8,0,68.6-30.8,68.6-68.6S657.2,0,619.4,0z"/>
	<g>
		<path class="st1" d="M93,212.1c-1.5-9.2-4.7-18.6-9.6-28.4c-6.4-12.5-13.2-18.8-20.3-18.8c-2.7,0-5.1,0.8-7.1,2.5
			c-6.2,5.5-10.9,11.9-14.1,19.2c-2.1,4.7-4.5,12.3-7.1,22.8c-2.7,11.1-4.1,23.9-4.1,38.3c0,30.1,5.6,53.8,16.9,71
			c5.2,7.8,10.3,11.6,15.5,11.6c6.4,0,12.6-5.2,18.7-15.7c4.5-7.9,7.8-16,9.6-24.4c3.6,1.5,5.8,2.4,6.6,2.5c2,0.2,3,1.3,3,3.4
			c0,1.8-1.3,5.6-3.9,11.4c-5.2,11.7-10.2,19.9-15,24.6c-6.7,6.5-15.5,9.8-26.4,9.8c-17.6,0-30.9-7.7-39.9-23
			C5.2,300.8,0,277.2,0,248.1c0-17.2,2-32.9,5.9-47.2c5-18.5,12.8-31.8,23.3-39.9c6.1-4.7,14.7-7.1,26-7.1c7.4,0,12.9,0.8,16.4,2.5
			c15,7,25.7,24.6,31.9,52.9C100.6,209.9,97.1,210.8,93,212.1L93,212.1z"/>
		<path class="st1" d="M198,313.2c-2.7,6.8-6.7,12.8-11.8,18c-5.8,5.9-12,9.5-18.5,10.7c-4.7,0.9-9.1,1.4-13.2,1.4
			c-20.2,0-34.5-9.2-43.1-27.6c-4.4-9.3-6.6-19.4-6.6-30.3c0-16.1,4.2-29.5,12.5-40.1c8.9-11.8,21.3-17.8,37.1-17.8
			c8,0,14.2,0.9,18.5,2.7c9.9,4.4,17.5,12.1,23,23c4.9,9.6,7.3,20.3,7.3,32.1C203.2,295.6,201.5,304.9,198,313.2L198,313.2z
			 M160.9,333.5c6.4-0.1,12.3-2.9,17.8-8.2c4.5-4.4,8.1-9.9,10.7-16.6c3-7.9,4.6-15.6,4.6-23.2c0-8.7-1.7-16.9-5-24.6
			c-3.6-8.8-8.7-15.3-15.3-19.6c-4-2.6-7.9-3.9-11.8-3.9c-0.5,0-1,0.1-1.7,0.3c-0.7,0.2-1.2,0.3-1.5,0.3c-0.9,0-2.1,0.1-3.6,0.2
			c-8.4,2.9-14.9,9.3-19.6,19.4c-4.1,8.5-6.2,17.7-6.2,27.6c0,18.8,5.6,32.9,16.9,42.2c4.4,3.8,8.6,5.6,12.5,5.5
			C159.4,332.8,160.1,333.1,160.9,333.5L160.9,333.5z"/>
		<path class="st1" d="M306.5,340.1c-1.5,0.6-2.9,1.2-4.3,1.8c-2.6,0.5-4.7,0.7-6.5,0.7c-3.5,0-7.1-0.8-10.8-2.5
			c-0.5-3.2-0.5-6-0.2-8.5V286c-0.5-1.5-0.7-3.5-0.7-6c-0.5-15.9-4.9-28.4-13.4-37.4c-4.2-4.3-8.1-6.4-11.8-6.4
			c-8.1,0-14.1,3.7-18,11l-0.7,88.3c-0.9,4.7-5.1,7.1-12.7,7.1s-11.5-2.3-12.7-6.8V233.7c1.2-4.7,5.5-7.1,13-7.1s11.8,2.1,13.2,6.4
			v1.1c6.2-5,13.8-7.5,22.8-7.5c14.7,0,25.8,6.1,33.3,18.3c6.8,11.4,10.3,23.3,10.3,35.7v49C307.3,331.6,307,335.1,306.5,340.1
			L306.5,340.1z"/>
		<path class="st1" d="M347.1,286.2v122.6c-3.1,4-6.2,5.9-9.2,5.9c-2.7,0-5.8-1.8-9.2-5.4V222.4c0-17.5,1.2-35.7,3.6-54.5
			c2.8-21.4,6.3-36.9,10.6-46.3c4.3-9.4,9.9-14.1,16.8-14.1c8.2,0,14.5,8.1,19.1,24.3c2.9,10.2,5.8,27.4,8.4,51.5
			c-1.6,2-4.2,4-7.8,5.9c-0.3-11.1-1.9-23.4-4.8-36.8c-3.3-16-6.9-24.1-10.6-24.1c-2.7,0-5.5,5.6-8.4,16.8c-2.1,8.6-3.7,17-4.8,25.2
			c-2.4,18.8-3.6,35.3-3.6,49.5V264c3.2,1,7.6,1.5,13,1.5s10.2-1.6,13.6-4.9c0.7,6.3,1.5,13.5,2.6,21.8c-4.4,2.6-7.3,3.9-8.6,3.9
			L347.1,286.2L347.1,286.2z"/>
		<path class="st1" d="M755.8,286.2v122.6c-3.1,4-6.2,5.9-9.2,5.9c-2.7,0-5.8-1.8-9.2-5.4V222.4c0-17.5,1.2-35.7,3.6-54.5
			c2.8-21.4,6.3-36.9,10.6-46.3c4.3-9.4,9.9-14.1,16.8-14.1c8.2,0,14.5,8.1,19.1,24.3c2.9,10.2,5.8,27.4,8.4,51.5
			c-1.6,2-4.2,4-7.8,5.9c-0.3-11.1-1.9-23.4-4.8-36.8c-3.3-16-6.9-24.1-10.6-24.1c-2.7,0-5.5,5.6-8.4,16.8c-2.1,8.6-3.7,17-4.8,25.2
			c-2.4,18.8-3.6,35.3-3.6,49.5V264c3.2,1,7.6,1.5,13.1,1.5s10.2-1.6,13.6-4.9c0.7,6.3,1.5,13.5,2.6,21.8c-4.4,2.6-7.3,3.9-8.6,3.9
			L755.8,286.2L755.8,286.2z"/>
		<path class="st1" d="M455.4,278.7c-13.2,5.1-24.3,9.7-33.3,13.8c-0.2,7.4,2.7,15.5,8.4,24.3c6.7,10.4,14.2,15.7,22.6,15.7
			c4.9,0,10-1.9,15.4-5.8s10.1-10.1,14-18.9c2.8,2,5.8,3,9.1,3c-5.6,11.1-11.2,18.9-16.9,23.5c-6.7,5.2-15.6,7.8-26.7,7.8
			c-16.1,0-28.8-5.5-38-16.4c-8.8-10.5-13.2-23.8-13.2-40.1s4.3-29.2,13-40.3c9.6-12.2,22.2-18.2,37.8-18.2
			c19.7,0,34.2,9.9,43.5,29.6v8C482.3,268,470.4,272.7,455.4,278.7L455.4,278.7z M453,237.3c-7.3,0-14.3,4.3-20.9,12.9
			c-6.6,8.6-10,16.4-10,23.4v7.1l58.3-22.3C473.3,244.3,464.1,237.4,453,237.3L453,237.3z"/>
		<path class="st1" d="M615.5,311.9c-0.6,2.6-2.6,7.3-5.9,14.1c-6.4,10.6-15.7,15.9-28,15.9c-13.7,0-23.7-5.3-30.1-15.9
			c-7.3-12-10.9-24.7-10.7-38.1c0-28.6,0.6-71.9,1.8-130.1c2.3-2.6,6.3-3.9,12.2-3.9c8.3,0,12.3,1.8,12.2,5.5l-0.9,62
			c2.7,0.3,6.9,0.5,12.5,0.5h9.3c2.2-0.5,4-0.7,5.2-0.7h3.6c0.4,3.1,0.9,6.6,1.4,10.5c-11,0.9-17.7,1.3-19.9,1.2h-12v47.3
			c0,19.8,4.2,35.2,12.5,46.4c2.2,3,4.5,4.8,6.6,5.2c0.9,0.2,1.8,0.2,2.7,0.2c6.5,0,12.2-6.3,17.2-18.9c1.6-4,3.2-5.9,4.5-5.9
			L615.5,311.9L615.5,311.9z"/>
		<path class="st1" d="M694.5,261.7c-1.8-7.8-5.5-14.1-11.2-18.9c-5.6-4.7-12.5-7.1-20.5-7.1c-9.9,0-18.8,4.8-26.7,14.4
			c-2.3-1.7-4.9-3.3-7.8-5c6.4-7.3,12.5-12.3,18.3-14.9c5.9-2.7,13.5-4,22.9-4c20.7,0,35.2,8.4,43.8,25.2c2.6,5.3,3.9,10.5,3.9,15.6
			v53.2c0,1.7,0.1,3.9,0.3,6.7c0.2,2.8,0.3,4.7,0.3,5.8c0,5.6-3.6,8.4-10.9,8.4c-5.1,0-8.8-1.2-10.9-3.7v-0.7
			c-6.5,3.7-14.9,5.5-25.3,5.5c-12.8,0-23.5-3.8-32.2-11.4c-9.1-7.9-13.6-18.2-13.6-30.8c0-8.1,2.1-15.5,6.3-22.2
			s9.8-11.8,16.9-15.3c7.1-3.4,14.8-5.1,23.4-5.1c3.8,0.3,7.7,0.7,11.6,1.1C687.7,259,691.5,260.1,694.5,261.7L694.5,261.7z
			 M695.4,272.7c-4.9-4-10.9-5.9-18-5.9c-0.8,0-1.9,0-3.4,0.1c-1.5,0.1-2.6,0.1-3.2,0.1c-3.7,0.3-7.3,2-11.1,5
			c-3.7,3.1-6.6,6.3-8.5,9.8c-3.1,5.3-4.6,11.3-4.6,17.8c0,12.3,4.8,21.9,14.3,28.6c4.7,3.2,10.3,4.8,16.9,4.8
			c5.9,0,11.4-1.8,16.6-5.5c0.3-0.1,0.8-0.1,1.6,0L695.4,272.7L695.4,272.7z"/>
		<path class="st1" d="M805.7,250.8c-6.4,0-9.7-2.2-9.7-6.6s3.2-6.6,9.7-6.6c5.1,0,8.3,1.6,9.5,4.9c-0.1,0.3-0.2,0.9-0.2,1.7
			c0,0.9,0.1,1.6,0.2,2.2C813.8,249.3,810.6,250.8,805.7,250.8z M806.5,340.1c-5.3,0-8.4-1.6-9.3-4.9v-76.6c1.1-3.4,4.3-5.1,9.4-5.1
			c5.9,0,9.1,1.8,9.4,5.4v76.2C814.9,338.4,811.7,340.1,806.5,340.1L806.5,340.1z"/>
		<path class="st1" d="M892.2,316.9c-0.4,1.9-1.9,5.4-4.4,10.5c-4.7,7.9-11.7,11.9-20.9,11.9c-10.2,0-17.7-4-22.4-11.9
			c-5.4-8.9-8.1-18.4-8-28.3c0-21.3,0.4-53.6,1.4-96.9c1.7-1.9,4.7-2.9,9.1-2.9c6.2,0,9.2,1.3,9.1,4.1l-0.7,46.2
			c2,0.2,5.1,0.3,9.3,0.3h6.9c1.7-0.3,3-0.5,3.9-0.5h2.7c0.3,2.3,0.7,4.9,1,7.8c-8.2,0.7-13.1,1-14.8,0.9h-8.9v35.2
			c0,14.7,3.1,26.2,9.3,34.6c1.7,2.2,3.3,3.5,4.9,3.9c0.7,0.1,1.4,0.2,2,0.2c4.8,0,9.1-4.7,12.8-14.1c1.2-2.9,2.4-4.4,3.4-4.4
			L892.2,316.9L892.2,316.9z"/>
		<path class="st2" d="M514.4,341.9c-6.6,0-10.5-2.2-11.7-6.6V232.4c1.4-4.4,5.4-6.8,11.8-6.8c7.4,0,11.3,2.4,11.8,7.2v102.5
			C524.9,339.7,521,341.9,514.4,341.9L514.4,341.9L514.4,341.9z"/>
		<path class="st0" d="M529.3,179.7c-1.5-3-4.4-5.8-8.1-4.9c-2,0.5-3.7,2.1-4.9,3.8c-0.6,0.8-1.2,1.7-1.7,2.5
			c-1.1-2.4-2.5-4.6-5-5.4c-3.2-1-7,0.7-8.9,3.6c-2.3,3.2-2.5,7.5-1.8,11.2c0.9,4.2,2.9,8,5.3,11.3c2.9,3.9,6.3,7.2,9.5,10.8
			c0.3,0.4,0.8,0.6,1.2,0.6c0.6,0.2,1.4,0,1.9-0.8c2.2-3.2,4.5-6.5,6.4-10.1c2-3.7,4.7-7.3,6.2-11.3
			C530.9,187.4,530.9,183.2,529.3,179.7L529.3,179.7z"/>
	</g>
	<g>
		<path class="st0" d="M334.8,45c2.5,0,4.9,0,7.4,0s4.9,0.1,7.3,0.2c2.4,0.1,4.7,0.2,6.8,0.5l-0.5,7.3h-17.4c-1.1,0-1.9,0.3-2.5,0.8
			c-0.5,0.6-0.8,1.4-0.8,2.5v23.1c0,1.1,0.3,1.9,0.8,2.5s1.4,0.8,2.5,0.8h17.4l0.5,7.3c-2.1,0.2-4.3,0.3-6.8,0.4s-4.8,0.2-7.3,0.2
			c-2.5,0-5,0-7.4,0c-2.9,0-5.2-0.8-7-2.5c-1.8-1.7-2.7-3.9-2.7-6.6V54.1c0-2.8,0.9-5,2.7-6.6C329.6,45.9,332,45,334.8,45z
			 M326.4,63.4h27.1v7.1h-27.1V63.4z"/>
		<path class="st0" d="M381,44.4c2.2,0,4.7,0.1,7.3,0.4c2.6,0.2,5.2,0.7,7.7,1.5l-0.7,6.6c-1.9,0-4.2-0.1-6.8-0.1s-5.1-0.1-7.6-0.1
			c-1.2,0-2.3,0-3.1,0.1c-0.8,0.1-1.5,0.2-2.1,0.5c-0.5,0.3-0.9,0.7-1.1,1.3c-0.2,0.6-0.3,1.3-0.3,2.4c0,1.5,0.4,2.6,1.1,3.3
			c0.7,0.7,2,1.3,3.7,1.9l8.7,2.8c3.6,1.2,6.1,2.9,7.5,5c1.4,2.1,2.1,4.8,2.1,8.3c0,2.6-0.3,4.7-0.9,6.4c-0.6,1.7-1.6,3-2.9,4
			c-1.3,1-3,1.7-5.2,2.1c-2.1,0.4-4.8,0.6-7.9,0.6c-1.5,0-3.6-0.1-6.4-0.3s-5.9-0.7-9.4-1.5l0.7-7.1c2.6,0,4.8,0.1,6.7,0.2
			c1.9,0.1,3.5,0.1,4.9,0.1s2.5,0,3.5,0c1.8,0,3.1-0.1,4.1-0.3s1.7-0.7,2.1-1.3c0.4-0.7,0.6-1.6,0.6-2.8c0-1-0.1-1.9-0.4-2.5
			s-0.7-1.1-1.4-1.5c-0.6-0.4-1.5-0.7-2.6-1l-9.2-3.2c-3.5-1.3-5.9-2.9-7.3-5s-2.2-4.8-2.2-8.1c0-2.6,0.3-4.8,1-6.4s1.6-2.9,3-3.8
			c1.3-0.9,3.1-1.5,5.2-1.9C375.5,44.5,378,44.4,381,44.4L381,44.4z"/>
		<path class="st0" d="M424.8,44.4c2.1,0,4,0.1,5.5,0.2c1.5,0.1,2.9,0.3,4.2,0.5c1.3,0.2,2.6,0.5,3.9,0.9l-0.8,7.3
			c-1.4-0.1-2.8-0.2-4-0.2c-1.2,0-2.5-0.1-3.9-0.1c-1.4,0-3,0-5,0c-2.2,0-4,0.4-5.2,1.3c-1.2,0.9-2.1,2.4-2.7,4.5
			c-0.5,2.2-0.8,5.2-0.8,9s0.3,6.8,0.8,9c0.5,2.2,1.4,3.7,2.7,4.5s3,1.3,5.2,1.3c3,0,5.5,0,7.6-0.1s4.1-0.2,6.1-0.5l0.8,7.3
			c-2.1,0.7-4.2,1.1-6.4,1.4c-2.2,0.3-4.9,0.4-8.1,0.4c-4.7,0-8.4-0.8-11.2-2.3s-4.8-4-6.1-7.4c-1.2-3.4-1.9-8-1.9-13.8
			s0.6-10.3,1.9-13.8c1.2-3.4,3.3-5.9,6.1-7.4C416.3,45.2,420.1,44.4,424.8,44.4L424.8,44.4z"/>
		<path class="st0" d="M465.6,44.3c3.6,0,6.6,0.4,9.1,1.2s4.5,2,6,3.8s2.6,4.2,3.3,7.2c0.7,3,1,6.8,1,11.4s-0.3,8.3-1,11.4
			c-0.7,3-1.8,5.4-3.3,7.2s-3.5,3-6,3.8c-2.5,0.8-5.5,1.2-9.1,1.2s-6.6-0.4-9.1-1.2c-2.5-0.8-4.5-2-6-3.8c-1.5-1.8-2.7-4.2-3.3-7.2
			c-0.7-3-1-6.8-1-11.4s0.3-8.3,1-11.4s1.8-5.4,3.3-7.2s3.5-3,6-3.8C459,44.7,462,44.3,465.6,44.3z M465.6,52.2
			c-2.3,0-4.1,0.5-5.4,1.4s-2.2,2.5-2.8,4.8c-0.5,2.2-0.8,5.4-0.8,9.5s0.3,7.2,0.8,9.4s1.5,3.9,2.8,4.8c1.3,0.9,3.1,1.4,5.4,1.4
			s4-0.5,5.3-1.4c1.3-0.9,2.2-2.5,2.8-4.8c0.5-2.3,0.8-5.4,0.8-9.4s-0.3-7.2-0.8-9.5s-1.5-3.8-2.8-4.8
			C469.7,52.7,467.9,52.2,465.6,52.2z"/>
		<path class="st0" d="M505.2,45.2V79c0,1.1,0.3,1.9,0.9,2.5s1.5,0.8,2.6,0.8h15.8l0.5,7.5c-3.1,0.3-6.3,0.6-9.7,0.6
			s-6.8,0.1-10.1,0.1s-5.8-0.9-7.4-2.7s-2.5-4-2.5-6.8v-36L505.2,45.2L505.2,45.2z"/>
		<path class="st0" d="M554.7,45.2c0.8,0,1.6,0.2,2.2,0.7c0.6,0.5,1.1,1.1,1.3,1.9l13.1,42.6H561l-9.2-33.2
			c-0.2-0.7-0.3-1.5-0.5-2.3s-0.3-1.5-0.5-2.2H549c-0.1,0.7-0.3,1.4-0.4,2.2c-0.2,0.8-0.3,1.5-0.6,2.3l-9.2,33.2h-10.3l13.2-42.6
			c0.2-0.8,0.6-1.4,1.3-1.9s1.4-0.7,2.2-0.7H554.7L554.7,45.2z M561.6,71v7.5h-23.5V71H561.6z"/>
	</g>
</g>
</svg>
